<?xml version="1.0" encoding="UTF-8"?>
<svg version="1.1" xmlns="http://www.w3.org/2000/svg" width="176" height="176">
<path d="M0 0 C20.79 0 41.58 0 63 0 C63 21.45 63 42.9 63 65 C42.21 65 21.42 65 0 65 C0 43.55 0 22.1 0 0 Z " fill="#080808" transform="translate(86,91)"/>
<path d="M0 0 C20.79 0 41.58 0 63 0 C63 21.45 63 42.9 63 65 C42.21 65 21.42 65 0 65 C0 43.55 0 22.1 0 0 Z " fill="#080808" transform="translate(86,20)"/>
<path d="M0 0 C20.46 0 40.92 0 62 0 C62 21.45 62 42.9 62 65 C41.54 65 21.08 65 0 65 C0 43.55 0 22.1 0 0 Z " fill="#030303" transform="translate(19,20)"/>
</svg>
